<?xml version="1.0" encoding="UTF-8"?>
<svg width="24px" height="24px" fill="#000000" version="1.1" viewBox="0 -960 960 960" xmlns="http://www.w3.org/2000/svg">
 <path d="m480-40c-74.667 0-143.33-17-206-51s-114-79.333-154-136v107h-80v-240h240v80h-99c32 48 74.167 86.667 126.5 116s109.83 44 172.5 44c50 0 96.833-9.5 140.5-28.5s81.667-44.667 114-77 58-70.333 77-114 28.5-90.5 28.5-140.5h80c0 60.667-11.5 117.67-34.5 171s-54.5 100-94.5 140-86.667 71.5-140 94.5-110.33 34.5-171 34.5zm-440-440c0-60.667 11.5-117.67 34.5-171s54.5-100 94.5-140 86.667-71.5 140-94.5 110.33-34.5 171-34.5c74.667 0 143.33 17 206 51s114 79.333 154 136v-107h80v240h-240v-80h99c-32-48-74.167-86.667-126.5-116s-109.83-44-172.5-44c-50 0-96.833 9.5-140.5 28.5s-81.667 44.667-114 77-58 70.333-77 114-28.5 90.5-28.5 140.5z"/>
 <g fill="#000">
  <circle cx="480" cy="-480" r="80" stroke="#000" stroke-dashoffset=".15" stroke-width="80"/>
  <rect transform="rotate(-15)" x="547.88" y="-899.41" width="80" height="1120"/>
  <rect transform="rotate(15)" x="299.41" y="-1147.9" width="80" height="1120"/>
 </g>
</svg>
