<?xml version="1.0" encoding="UTF-8"?>
<!-- Created with Inkscape (http://www.inkscape.org/) -->
<svg width="24" height="24" version="1.1" viewBox="0 0 24 24" xmlns="http://www.w3.org/2000/svg">
 <g display="none" stroke="#000">
  <rect x="1.0505" y="1.0647" width="22.003" height="22.003" display="inline" fill="none"/>
  <rect x="12.413" y="12.4" width="10.364" height="10.364" display="inline"/>
  <rect x="1.045" y="1.05" width="10.364" height="10.364" display="inline"/>
 </g>
 <g fill="none" stroke="#000">
  <g stroke-linecap="round">
   <circle cx="17.101" cy="17.016" r="6.3406" stroke-linejoin="round" stroke-opacity=".99914" stroke-width=".98394"/>
   <path d="m4.1862 5.156s5.2535-0.85573 9.2106 7.4546c3.9571 8.3103 7.3376 8.2899 7.3376 8.2899" stroke-width="3"/>
   <circle cx="7.6147" cy="7.719" r="6.9587" stroke-linejoin="round" stroke-opacity=".99914" stroke-width="1.0798"/>
  </g>
  <g transform="matrix(1.1013 -.15241 .15241 1.1013 4.6894 -8.4587)" stroke-width=".7">
   <path d="m-3.0989 19.867 8.8045-9.0226"/>
   <path d="m-5.2431 16.649 7.7093-7.9164"/>
   <path d="m-5.6498 14.369 5.6726-5.8589"/>
   <path d="m1.1415 20.972 5.6345-5.8205"/>
   <path d="m-1.2445 20.688 7.8449-8.0534"/>
   <path d="m-4.4963 18.584 8.6393-8.8557"/>
  </g>
  <g transform="matrix(1.1029 -.14009 .14009 1.1029 14.379 .7942)">
   <path d="m-2.7655 19.529 7.9789-8.1874" stroke-width=".7"/>
   <path d="m-4.8798 16.281 6.888-7.0843" stroke-width=".7"/>
   <path d="m-4.8107 13.523 4.2183-4.3845" stroke-width=".7"/>
   <path d="m1.8883 20.217 4.3495-4.5179" stroke-width=".7"/>
   <path d="m-0.80513 20.243 6.8427-7.0386" stroke-width=".7"/>
   <path d="m-4.0479 18.132 7.9789-8.1874" stroke-width=".7"/>
  </g>
 </g>
</svg>
