<?xml version="1.0" encoding="UTF-8"?>
<svg width="24px" height="24px" fill="#000000" version="1.1" viewBox="0 -960 960 960" xmlns="http://www.w3.org/2000/svg">
 <path d="m600-160c39.333 0 75.833-9 109.5-27s60.5-42.333 80.5-73c-20-30.667-46.833-55-80.5-73s-70.167-27-109.5-27-75.833 9-109.5 27-60.5 42.333-80.5 73c20 30.667 46.833 55 80.5 73s70.167 27 109.5 27zm0 80c-64 0-121.17-16.833-171.5-50.5-50.333-33.667-86.5-76.833-108.5-129.5 22-52.667 58.167-95.833 108.5-129.5s107.5-50.5 171.5-50.5 121.17 16.833 171.5 50.5 86.5 76.833 108.5 129.5c-22 52.667-58.167 95.833-108.5 129.5-50.333 33.667-107.5 50.5-171.5 50.5zm0-120c-16.667 0-30.833-5.8333-42.5-17.5s-17.5-25.833-17.5-42.5 5.8333-30.833 17.5-42.5 25.833-17.5 42.5-17.5 30.833 5.8333 42.5 17.5 17.5 25.833 17.5 42.5-5.8333 30.833-17.5 42.5-25.833 17.5-42.5 17.5z"/>
 <g fill="none" stroke="#000" stroke-linecap="round">
  <path d="m120.11-399.74 634.81-266.62" stroke-width="80"/>
  <g stroke-width="40">
   <path d="m234.08-436.89-134.08-343.11"/>
   <path d="m337.64-476.7-134.08-343.11"/>
   <path d="m441.19-516.51-134.08-343.11"/>
   <path d="m544.75-556.32-134.08-343.11"/>
  </g>
 </g>
 <path d="m600-644.52 119.2-46.653-82.924-36.271 31.737-72.559 207.31 90.678-90.678 207.31-72.559-31.737 34.409-82.195-117.33 45.924z"/>
</svg>
