<?xml version="1.0" encoding="UTF-8"?>
<svg width="24px" height="24px" fill="#000000" version="1.1" viewBox="0 -960 960 960" xmlns="http://www.w3.org/2000/svg">
 <path transform="matrix(44.583 0 0 44.583 -63.72 -1091)" d="m12.044 12c3.21e-4 0.38428-0.59194 0.14441-0.71391 5.96e-4 -0.54298-0.6402 0.0837-1.5286 0.71241-1.7954 1.3389-0.56813 2.7203 0.52484 3.0791 1.7922 0.59478 2.1007-1.0715 4.0891-3.0739 4.5147-2.9281 0.62236-5.5962-1.694-6.075-4.5071-0.64927-3.8147 2.3774-7.2188 6.0647-7.7423 4.7543-0.67496 8.9419 3.1123 9.5043 7.7293 0.69936 5.7417-3.8923 10.755-9.4884 11.352" fill="none" stroke="#000" stroke-linecap="round" stroke-linejoin="round" stroke-width="2"/>
</svg>
