<?xml version="1.0" encoding="UTF-8"?>
<!-- Created with Inkscape (http://www.inkscape.org/) -->
<svg width="24" height="24" version="1.1" viewBox="0 0 24 24" xml:space="preserve" xmlns="http://www.w3.org/2000/svg"><path d="m5.7827 22.351c-0.65128-0.18839-1.242-0.71064-1.5241-1.3475-0.20148-0.45478-0.26106-0.73603-0.26106-1.2324 0-0.72496 0.11715-1.3986 0.35271-2.028 0.13365-0.35712 0.17461-0.43854 0.66851-1.3289 0.36729-0.66208 0.44182-0.87946 0.44182-1.2886 0-0.68555-0.37295-1.2941-0.93478-1.5252-0.10019-0.041214-0.74239-0.16823-1.4271-0.28226-0.68472-0.11403-1.3152-0.23473-1.4011-0.26822-0.36803-0.14352-0.61448-0.39127-0.81938-0.82367-0.096625-0.20391-0.10484-0.25501-0.10364-0.6443l0.001317-0.42282 0.33866-0.98658c0.18626-0.54262 0.40283-1.1192 0.48126-1.2813 0.49836-1.03 1.3866-1.8471 2.3835-2.1927 0.46819-0.16232 0.60946-0.18258 2.307-0.33089 2.0742-0.1812 2.4422-0.26204 3.3036-0.72551 0.53624-0.28855 0.83733-0.5188 1.5302-1.1701 0.6939-0.65234 1.0967-0.95851 1.6383-1.2453 0.61199-0.32407 1.1735-0.50919 1.8382-0.60598 0.28665-0.041742 0.42249-0.045107 0.53044-0.013139 0.42052 0.12452 0.78798 0.46752 0.97598 0.91102 0.13361 0.31519 0.1372 0.39592 0.08458 1.9023-0.02756 0.78888-0.02385 0.93934 0.0286 1.1635 0.12951 0.55345 0.4434 0.98002 0.90374 1.2281 0.4644 0.25031 0.54346 0.25178 2.2393 0.041398 1.5582-0.1933 1.7322-0.19907 2.1805-0.07228 0.68754 0.19446 1.2851 0.74042 1.6112 1.4719 0.13671 0.30671 0.19233 0.57755 0.19193 0.9345-0.0014 1.2597-0.67275 2.4429-1.6941 2.9859-0.38776 0.20614-0.76779 0.30297-1.2691 0.32334-0.36969 0.01503-0.46654 0.03383-0.67658 0.13137-0.64824 0.30104-1.2009 0.88587-1.4961 1.5831-0.16743 0.39546-0.24405 0.80963-0.34908 1.8869-0.10612 1.0884-0.17942 1.4235-0.40218 1.8383-0.16618 0.30947-0.54724 0.72931-0.8343 0.91924-0.37228 0.24631-0.73712 0.3546-1.2023 0.35686-0.38878 0.0019-0.43506-0.0081-1.5484-0.33373-1.5961-0.46686-1.5556-0.45801-2.0949-0.45796-0.58566 6.7e-5 -0.96772 0.09558-1.4937 0.37346-0.43795 0.23137-0.40985 0.20864-1.6351 1.3222-1.0251 0.93165-1.2689 1.1063-1.7219 1.234-0.27906 0.07865-0.87019 0.07855-1.1424-1.13e-4z" stroke="#000" stroke-dashoffset=".66" stroke-linecap="round" stroke-width=".084265"/></svg>
