<?xml version="1.0" encoding="UTF-8"?>
<!-- Created with Inkscape (http://www.inkscape.org/) -->
<svg width="48" height="48" version="1.1" viewBox="0 0 48 48" xmlns="http://www.w3.org/2000/svg">
<style>
<![CDATA[
@media (prefers-color-scheme: dark) {
    #bg-rect, #fix-rect {
        fill: #313131;
    }
    #iphi-text {
        fill: #66baff;
    }
    #e-text {
        fill: #ffe066;
    }
}
]]>
</style>
<defs></defs>
<rect id="bg-rect" width="48" height="48" rx="8" ry="8" fill="#ffffff" stroke-linecap="round" stroke-linejoin="round" stroke-width="4"/>
<path id="iphi-text" d="m22.181 25.03h-4.6814l3.9539-16.638h4.7131zm2.2775-18.663q-0.98057 0-1.7714-0.56937-0.79078-0.601-0.79078-1.803 0-0.66426 0.25305-1.2336 0.28468-0.601 0.72752-1.0122 0.44284-0.44284 1.0122-0.69589 0.601-0.25305 1.2653-0.25305 0.98057 0 1.7714 0.601 0.79078 0.56937 0.79078 1.7714 0 0.66426-0.28468 1.2653-0.25305 0.56937-0.69589 1.0122-0.44284 0.41121-1.0438 0.66426-0.56937 0.25305-1.2336 0.25305zm7.8446 18.789q-3.258-0.37958-4.9661-2.3407-1.7081-1.9928-1.7081-4.7763 0-1.7081 0.53773-3.4795 0.53773-1.7714 1.7397-3.258 1.2336-1.5183 3.2264-2.4989 1.9928-0.98057 4.8712-1.1704l1.3918-6.6426h4.4284l-1.3918 6.6742q3.1948 0.44284 4.8712 2.3724 1.6765 1.9295 1.6765 4.8396 0 1.5499-0.44284 3.2264-0.44284 1.6765-1.5816 3.2264-1.1071 1.5183-3.1315 2.5938-2.0244 1.0755-5.1559 1.3918l-1.4867 7.3069h-4.4917zm2.9417-13.918q-1.3918 0.0949-2.3407 0.75915-0.94894 0.66426-1.5183 1.6448-0.53773 0.98057-0.79078 2.056-0.22142 1.0755-0.22142 1.9611 0 1.5816 0.66426 2.657 0.66426 1.0438 1.9928 1.2336zm2.2142 10.312q1.455-0.18979 2.3724-0.91731 0.94894-0.72752 1.455-1.7081 0.53773-1.0122 0.75915-2.056 0.22142-1.0438 0.22142-1.8979 0-1.4234-0.66426-2.4356t-1.9611-1.2336z" fill="#2475e7" aria-label="iϕ"/>
<rect id="fix-rect" x="15" y="22" width="10" height="10" fill="#ffffff" stroke-linecap="round" stroke-linejoin="round" stroke-width="4"/>
<path id="e-text" d="m1 35.608q0-3.3164 1.14-6.4256 1.1918-3.1091 3.3164-5.4928 2.1246-2.4355 5.1301-3.8864 3.0573-1.5027 6.7365-1.5027 1.8137 0 3.3682 0.51819 1.5546 0.51819 2.6946 1.5028 1.1918 0.98456 1.8137 2.4355 0.67365 1.3991 0.67365 3.2128 0 2.9019-1.2955 4.9228-1.2955 2.0209-3.6273 3.3164-2.28 1.2437-5.441 1.8137-3.161 0.57001-6.8919 0.57001 0.36273 2.1764 1.5546 3.1091 1.2437 0.88092 3.8864 0.88092 1.6582 0 3.3682-0.25909 1.71-0.31091 3.2128-0.88092l0.57001 6.0628q-1.4509 0.57001-3.731 1.0364-2.2282 0.46637-4.871 0.46637-3.2128 0-5.441-0.88092-2.1764-0.93274-3.5755-2.4873-1.3473-1.5546-1.9691-3.6273-0.62183-2.0728-0.62183-4.4046zm15.079-11.193q-2.6428 0-4.6637 1.9173-1.9691 1.8655-2.5909 4.9746 3.2128-0.10364 5.1819-0.51819 1.9691-0.46637 3.0573-1.0882 1.0882-0.62183 1.4509-1.3473t0.36273-1.4509q0-2.4873-2.7982-2.4873z" fill="#e9385c" aria-label="e"/>
</svg>
