<?xml version="1.0" encoding="UTF-8" standalone="no"?>
<svg
   height="24px"
   viewBox="0 -960 960 960"
   width="24px"
   fill="#000000"
   version="1.1"
   id="svg1"
   sodipodi:docname="bi-inversion-v3.svg"
   inkscape:version="1.4 (e7c3feb100, 2024-10-09)"
   xmlns:inkscape="http://www.inkscape.org/namespaces/inkscape"
   xmlns:sodipodi="http://sodipodi.sourceforge.net/DTD/sodipodi-0.dtd"
   xmlns="http://www.w3.org/2000/svg"
   xmlns:svg="http://www.w3.org/2000/svg">
  <defs
     id="defs1" />
  <sodipodi:namedview
     id="namedview1"
     pagecolor="#ffffff"
     bordercolor="#666666"
     borderopacity="1.0"
     inkscape:showpageshadow="2"
     inkscape:pageopacity="0.0"
     inkscape:pagecheckerboard="0"
     inkscape:deskcolor="#d1d1d1"
     inkscape:zoom="24.999965"
     inkscape:cx="7.14001"
     inkscape:cy="13.98002"
     inkscape:window-width="1920"
     inkscape:window-height="1003"
     inkscape:window-x="0"
     inkscape:window-y="40"
     inkscape:window-maximized="1"
     inkscape:current-layer="svg1" />
  <path
     d="m 480,-40 c -74.66667,0 -143.33333,-17 -206,-51 -62.66667,-34 -114,-79.33333 -154,-136 v 107 H 40 v -240 h 240 v 80 h -99 c 32,48 74.16667,86.66667 126.5,116 52.33333,29.33333 109.83333,44 172.5,44 50,0 96.83333,-9.5 140.5,-28.5 43.66667,-19 81.66667,-44.66667 114,-77 32.33333,-32.33333 58,-70.33333 77,-114 19,-43.66667 28.5,-90.5 28.5,-140.5 h 80 c 0,60.66667 -11.5,117.66667 -34.5,171 -23,53.33333 -54.5,100 -94.5,140 -40,40 -86.66667,71.5 -140,94.5 -53.33333,23 -110.33333,34.5 -171,34.5 z M 40,-480 c 0,-60.66667 11.5,-117.66667 34.5,-171 23,-53.33333 54.5,-100 94.5,-140 40,-40 86.66667,-71.5 140,-94.5 53.33333,-23 110.33333,-34.5 171,-34.5 74.66667,0 143.33333,17 206,51 62.66667,34 114,79.33333 154,136 v -107 h 80 v 240 H 680 v -80 h 99 c -32,-48 -74.16667,-86.66667 -126.5,-116 -52.33333,-29.33333 -109.83333,-44 -172.5,-44 -50,0 -96.83333,9.5 -140.5,28.5 -43.66667,19 -81.66667,44.66667 -114,77 -32.33333,32.33333 -58,70.33333 -77,114 -19,43.66667 -28.5,90.5 -28.5,140.5 z"
     id="path1"
     sodipodi:nodetypes="sscccccccsssssccsssscssssscccccccssssscc" />
  <circle
     style="fill:#000000;stroke:#000000;stroke-width:80.0002;stroke-dashoffset:0.15"
     id="path2"
     cx="480"
     cy="-480"
     r="79.999901" />
  <rect
     style="fill:#000000;stroke:none;stroke-width:80;stroke-dashoffset:0.15"
     id="rect2"
     width="80"
     height="1120"
     x="547.87756"
     y="-899.41125"
     transform="rotate(-15)" />
  <rect
     style="fill:#000000;stroke:none;stroke-width:80;stroke-dashoffset:0.15"
     id="rect2-7"
     width="80"
     height="1120"
     x="299.41125"
     y="-1147.8776"
     transform="rotate(15)" />
</svg>
