<?xml version="1.0" encoding="UTF-8"?>
<svg width="24" height="24" version="1.1" viewBox="0 -960 960 960" xmlns="http://www.w3.org/2000/svg">
 <path d="m480-80q-74.7 0-140.4-28.35-65.7-28.35-114.3-76.95-48.6-48.6-76.95-114.3-28.35-65.7-28.35-140.4t28.35-140.4q28.35-65.7 76.95-114.3 48.6-48.6 114.3-76.95 65.7-28.35 140.4-28.35t140.4 28.35q65.7 28.35 114.3 76.95 48.6 48.6 76.95 114.3 28.35 65.7 28.35 140.4t-28.35 140.4q-28.35 65.7-76.95 114.3-48.6 48.6-114.3 76.95-65.7 28.35-140.4 28.35zm0-72q120.6 0 204.3-83.7t83.7-204.3-83.7-204.3-204.3-83.7-204.3 83.7-83.7 204.3 83.7 204.3 204.3 83.7z" display="none" fill="none" stroke-width="40"/>
 <g>
  <path d="m480-640c-33.333 0-61.667-11.667-85-35-23.333-23.333-35-51.667-35-85s11.667-61.667 35-85c23.333-23.333 51.667-35 85-35s61.667 11.667 85 35c23.333 23.333 35 51.667 35 85s-11.667 61.667-35 85c-23.333 23.333-51.667 35-85 35z"/>
  <path d="m760-160c-33.333 0-61.667-11.667-85-35-23.333-23.333-35-51.667-35-85s11.667-61.667 35-85c23.333-23.333 51.667-35 85-35s61.667 11.667 85 35c23.333 23.333 35 51.667 35 85s-11.667 61.667-35 85c-23.333 23.333-51.667 35-85 35z"/>
  <path d="m200-160c-33.333 0-61.667-11.667-85-35-23.333-23.333-35-51.667-35-85s11.667-61.667 35-85c23.333-23.333 51.667-35 85-35s61.667 11.667 85 35c23.333 23.333 35 51.667 35 85s-11.667 61.667-35 85c-23.333 23.333-51.667 35-85 35z"/>
 </g>
 <circle cx="480" cy="-440" r="320" fill="none" stroke="#000" stroke-linecap="round" stroke-linejoin="round" stroke-width="80"/>
</svg>
