<?xml version="1.0" encoding="UTF-8"?>
<svg width="24" height="24" version="1.1" viewBox="0 -960 960 960" xmlns="http://www.w3.org/2000/svg">
 <path d="m480-360c33.333 0 61.667-11.667 85-35s35-51.667 35-85-11.667-61.667-35-85-51.667-35-85-35-61.667 11.667-85 35-35 51.667-35 85 11.667 61.667 35 85 51.667 35 85 35zm0 280c-55.333 0-107.33-10.5-156-31.5s-91-49.5-127-85.5-64.5-78.333-85.5-127-31.5-100.67-31.5-156 10.5-107.33 31.5-156 49.5-91 85.5-127 78.333-64.5 127-85.5 100.67-31.5 156-31.5 107.33 10.5 156 31.5 91 49.5 127 85.5 64.5 78.333 85.5 127 31.5 100.67 31.5 156-10.5 107.33-31.5 156-49.5 91-85.5 127-78.333 64.5-127 85.5-100.67 31.5-156 31.5zm0-80c89.333 0 165-31 227-93s93-137.67 93-227-31-165-93-227-137.67-93-227-93-165 31-227 93-93 137.67-93 227 31 165 93 227 137.67 93 227 93z"/>
 <path d="m840-360c33.333 0 61.667-11.667 85-35s35-51.667 35-85-11.667-61.667-35-85-51.667-35-85-35-61.667 11.667-85 35-35 51.667-35 85 11.667 61.667 35 85 51.667 35 85 35z"/>
 <path d="m480-480h360" fill="none" stroke="#000" stroke-width="80"/>
</svg>
