<?xml version="1.0" encoding="UTF-8"?>
<svg width="24" height="24" version="1.1" viewBox="0 -960 960 960" xml:space="preserve" xmlns="http://www.w3.org/2000/svg"><path d="m320-60q-117 0-198.5-81.5t-81.5-198.5 81.5-198.5 198.5-81.5q27 0 52.5 5t49.5 14q-17 14-32 30.5t-28 34.5q-10-2-20.5-3t-21.5-1q-83 0-141.5 58.5t-58.5 141.5 58.5 141.5 141.5 58.5q11 0 21.5-1t20.5-3q13 18 28 34.5 15 16.5 32 30.5-24 9-49.5 14t-52.5 5zm320 0q-27 0-52.5-5t-49.5-14q17-14 32-30.5 15-16.5 28-34.5 11 2 21 3t21 1q83 0 141.5-58.5t58.5-141.5-58.5-141.5-141.5-58.5q-11 0-21 1t-21 3q-13-18-28-34.5t-32-30.5q24-9 49.5-14t52.5-5q117 0 198.5 81.5t81.5 198.5-81.5 198.5-198.5 81.5zm-160-50q-57-39-88.5-100t-31.5-130 31.5-130 88.5-100q57 39 88.5 100t31.5 130-31.5 130-88.5 100z"/><path d="m256.68-424.47-163.4-163.4c-4.4282-4.4282-7.7493-9.2991-9.9634-14.613s-3.3211-10.849-3.3211-16.606 1.107-11.292 3.3211-16.606 5.5352-10.185 9.9634-14.613l152.77-152.11-70.408-70.408 41.182-43.175 265.69 265.69c4.4282 4.4282 7.6386 9.2991 9.6312 14.613s2.989 10.849 2.989 16.606-0.99634 11.292-2.989 16.606-5.2031 10.185-9.6312 14.613l-163.4 163.4c-4.4282 4.4282-9.2991 7.7493-14.613 9.9634s-10.849 3.3211-16.606 3.3211-11.292-1.107-16.606-3.3211-10.185-5.5352-14.613-9.9634zm31.219-336.1-142.14 142.14h284.29z" stroke-width=".66422"/></svg>
