<?xml version="1.0" encoding="UTF-8"?>
<svg width="24px" height="24px" fill="#000000" version="1.1" viewBox="0 -960 960 960" xmlns="http://www.w3.org/2000/svg">
 <g fill="none" stroke="#000" stroke-linecap="round">
  <path d="m120.11-399.74 634.81-266.62" stroke-width="80"/>
  <g stroke-width="40">
   <path d="m234.08-436.89-134.08-343.11"/>
   <path d="m337.64-476.7-134.08-343.11"/>
   <path d="m441.19-516.51-134.08-343.11"/>
   <path d="m544.75-556.32-134.08-343.11"/>
  </g>
 </g>
 <path d="m600-644.52 119.2-46.653-82.924-36.271 31.737-72.559 207.31 90.678-90.678 207.31-72.559-31.737 34.409-82.195-117.33 45.924z"/>
 <path d="m588.28-439.77 95.234 94.844c8.8506 3.3946 17.525 7.4138 26.016 11.953 33.667 18 60.469 42.302 80.469 72.969-2.7878 4.2746-5.6967 8.3934-8.75 12.422l57.188 56.953c17.129-20.931 30.984-44.051 41.562-69.375-22-52.667-58.182-95.865-108.52-129.53-50.333-33.667-107.48-50.469-171.48-50.469-3.9216 0-7.8485 0.10797-11.719 0.23438z"/>
 <path d="m780.23-136.56-58.047-57.734c-4.1181 2.5346-8.3104 4.9421-12.656 7.2656-33.667 18-70.198 27.031-109.53 27.031s-75.865-9.0312-109.53-27.031-60.469-42.302-80.469-72.969c20-30.667 46.802-54.969 80.469-72.969 21.768-11.638 44.77-19.48 68.906-23.594l-65.938-65.625c-22.771 8.1277-44.418 18.942-64.922 32.656-50.333 33.667-86.516 76.865-108.52 129.53 22 52.667 58.182 95.865 108.52 129.53 50.333 33.667 107.48 50.469 171.48 50.469s121.15-16.802 171.48-50.469c2.9593-1.9794 5.8886-4.0486 8.75-6.0938z"/>
 <path d="m437.99-421.38 324.01 322.76" fill="none" stroke="#000" stroke-linecap="round" stroke-width="80"/>
 <path d="m600-200c-16.667 0-30.833-5.8333-42.5-17.5s-17.5-25.833-17.5-42.5 5.1577-53.449 17.5-42.5c47.446 42.091 34.676 41.671 85 85 12.503 10.765-25.833 17.5-42.5 17.5z" fill="#000"/>
</svg>
