<?xml version="1.0" encoding="UTF-8"?>
<svg width="24" height="24" version="1.1" viewBox="0 -960 960 960" xmlns="http://www.w3.org/2000/svg">
 <path d="m320-760c-78 0-144.18 27.151-198.52 81.484-54.333 54.333-81.484 120.52-81.484 198.52s27.151 144.18 81.484 198.52c54.333 54.333 120.52 81.484 198.52 81.484 18 0 35.5-1.6667 52.5-5s33.531-7.9844 49.531-13.984c-11.333-9.3333-22.031-19.547-32.031-30.547s-19.302-22.453-27.969-34.453c-6.6667 1.3333-13.547 2.3021-20.547 2.9688-7 0.66666-14.151 1.0156-21.484 1.0156-55.333 0-102.48-19.516-141.48-58.516s-58.516-86.151-58.516-141.48 19.516-102.48 58.516-141.48 86.151-58.516 141.48-58.516c7.3333 0 14.484 0.34896 21.484 1.0156 7 0.66667 13.88 1.6354 20.547 2.9688 8.6667-12 17.969-23.453 27.969-34.453s20.698-21.214 32.031-30.547c-16-6-32.531-10.651-49.531-13.984s-34.5-5-52.5-5zm320 0c-18 0-35.5 1.6667-52.5 5s-33.531 7.9844-49.531 13.984c11.333 9.3333 22.031 19.547 32.031 30.547s19.302 22.453 27.969 34.453c7.3333-1.3333 14.349-2.3021 21.016-2.9688 6.6667-0.66666 13.682-1.0156 21.016-1.0156 55.333 0 102.48 19.516 141.48 58.516s58.516 86.151 58.516 141.48c0 22.401-3.3736 43.401-9.7656 63.125a221.34 221.34 0 0 1 69.219 45.312c13.672-33.172 20.547-69.311 20.547-108.44 0-78-27.151-144.18-81.484-198.52-54.333-54.333-120.52-81.484-198.52-81.484zm-160 50c-38 26-67.516 59.333-88.516 100s-31.484 84-31.484 130 10.484 89.333 31.484 130 50.516 74 88.516 100c38-26 67.516-59.333 88.516-100s31.484-84 31.484-130-10.484-89.333-31.484-130-50.516-74-88.516-100z"/>
 <path d="m708.51-40.69-10.803-54.013c-7.2017-3.0007-13.953-6.1515-20.255-9.4523s-12.753-7.3518-19.355-12.153l-52.213 16.204-36.009-61.215 41.41-36.009c-1.2003-7.8019-1.8004-15.604-1.8004-23.406 0-7.8019 0.60015-15.604 1.8004-23.406l-41.41-36.009 36.009-61.215 52.213 16.204c6.6016-4.8011 13.053-8.8521 19.355-12.153 6.3015-3.3008 13.053-6.4516 20.255-9.4523l10.803-54.013h72.017l10.803 54.013c7.2017 3.0007 14.103 6.4516 20.705 10.352 6.6016 3.9009 12.903 8.252 18.905 13.053l52.213-18.004 36.009 63.015-41.41 36.009c1.2003 7.8019 1.8004 15.304 1.8004 22.505 0 7.2017-0.60015 14.704-1.8004 22.505l41.41 36.009-36.009 61.215-52.213-16.204c-6.6016 4.8012-13.053 8.8521-19.355 12.153s-13.053 6.4516-20.255 9.4523l-10.803 54.013zm36.009-108.03c19.805 0 36.759-7.0517 50.862-21.155 14.103-14.103 21.155-31.057 21.155-50.862 0-19.805-7.0517-36.759-21.155-50.862-14.103-14.103-31.057-21.155-50.862-21.155s-36.759 7.0517-50.862 21.155-21.155 31.057-21.155 50.862c0 19.805 7.0517 36.759 21.155 50.862s31.057 21.155 50.862 21.155z"/>
</svg>
