<?xml version="1.0" encoding="UTF-8"?>
<svg width="24" height="24" version="1.1" viewBox="0 -960 960 960" xml:space="preserve" xmlns="http://www.w3.org/2000/svg"><path d="m190.51-200.29c-21.919-38.152-27.099-78.616-15.54-121.39s36.415-75.126 74.566-97.046c38.152-21.919 78.616-27.099 121.39-15.54s75.126 36.415 97.046 74.566c21.919 38.152 27.099 78.616 15.54 121.39-11.559 42.778-36.415 75.126-74.566 97.046s-78.616 27.099-121.39 15.54c-42.778-11.559-75.126-36.415-97.046-74.566zm69.366-39.853c10.96 19.076 27.134 31.504 48.523 37.283 21.389 5.7797 41.621 3.1896 60.697-7.77s31.504-27.134 37.283-48.523c5.7796-21.389 3.1896-41.621-7.77-60.697-10.96-19.076-27.134-31.504-48.523-37.283s-41.621-3.1896-60.697 7.77c-19.076 10.96-31.504 27.134-37.283 48.523-5.7796 21.389-3.1896 41.621 7.77 60.697zm-116.61-354.75c-21.919-38.152-27.099-78.616-15.54-121.39 11.559-42.778 36.415-75.126 74.566-97.046 38.152-21.919 78.616-27.099 121.39-15.54s75.126 36.415 97.046 74.566 27.099 78.616 15.54 121.39c-11.559 42.778-36.415 75.126-74.566 97.046s-78.616 27.099-121.39 15.54c-42.778-11.559-75.126-36.415-97.046-74.566zm69.366-39.853c10.96 19.076 27.134 31.504 48.523 37.283 21.389 5.7796 41.621 3.1896 60.697-7.77 19.076-10.96 31.504-27.134 37.283-48.523 5.7797-21.389 3.1897-41.621-7.77-60.697-10.96-19.076-27.134-31.503-48.523-37.283-21.389-5.7797-41.621-3.1896-60.697 7.77-19.076 10.96-31.504 27.134-37.283 48.523-5.7797 21.389-3.1897 41.621 7.77 60.697zm322.63 82.453c-21.919-38.152-27.099-78.616-15.54-121.39 11.559-42.778 36.415-75.126 74.566-97.046 38.152-21.919 78.616-27.099 121.39-15.54 42.778 11.559 75.126 36.415 97.046 74.566s27.099 78.616 15.54 121.39c-11.559 42.778-36.415 75.126-74.566 97.046-38.152 21.919-78.616 27.099-121.39 15.54-42.778-11.559-75.126-36.415-97.046-74.566zm69.366-39.853c10.96 19.076 27.134 31.504 48.523 37.283 21.389 5.7797 41.621 3.1896 60.697-7.77 19.076-10.96 31.504-27.134 37.283-48.523 5.7797-21.389 3.1896-41.621-7.77-60.697-10.96-19.076-27.134-31.504-48.523-37.283-21.389-5.7797-41.621-3.1896-60.697 7.77-19.076 10.96-31.504 27.134-37.283 48.523-5.7796 21.389-3.1896 41.621 7.77 60.697z"/><path d="m841.34-42.372-171-171-50 151-120-400 400 120-151 50 171 171z"/><path d="m102-878c-11.046 0-20 8.9543-20 20s8.9543 20 20 20h80c11.046 0 20-8.9543 20-20s-8.9543-20-20-20zm160 0c-11.046 0-20 8.9543-20 20s8.9543 20 20 20h80c11.046 0 20-8.9543 20-20s-8.9543-20-20-20zm160 0c-11.046 0-20 8.9543-20 20s8.9543 20 20 20h80c11.046 0 20-8.9543 20-20s-8.9543-20-20-20zm160 0c-11.046 0-20 8.9543-20 20s8.9543 20 20 20h80c11.046 0 20-8.9543 20-20s-8.9543-20-20-20zm160 0c-11.046 0-20 8.9543-20 20s8.9543 20 20 20h80c11.046 0 20-8.9543 20-20s-8.9543-20-20-20zm114.77 45.227c-11.046 0-20 8.9543-20 20v80c0 11.046 8.9543 20 20 20s20-8.9543 20-20v-80c0-11.046-8.9543-20-20-20zm-754.77 16.783c-11.046 0-20 8.9543-20 20v80c0 11.046 8.9543 20 20 20 11.046 0 20-8.9543 20-20v-80c0-11.046-8.9543-20-20-20zm754.77 143.22c-11.046 0-20 8.9543-20 20v80c0 11.046 8.9543 20 20 20s20-8.9543 20-20v-80c0-11.046-8.9543-20-20-20zm-754.77 16.783c-11.046 0-20 8.9543-20 20v80c0 11.046 8.9543 20 20 20 11.046 0 20-8.9543 20-20v-80c0-11.046-8.9543-20-20-20zm754.77 143.22c-11.046 0-20 8.9543-20 20v80c0 11.046 8.9543 20 20 20s20-8.9543 20-20v-80c0-11.046-8.9543-20-20-20zm-754.77 16.783c-11.046 0-20 8.9543-20 20v80c0 11.046 8.9543 20 20 20 11.046 0 20-8.9543 20-20v-80c0-11.046-8.9543-20-20-20zm754.77 178.11c-11.046 0-19.844 8.9554-20 20l-0.93992 66.726c-0.15557 11.045 8.9543 20 20 20s19.844-8.9554 20-20l0.93992-66.726c0.15558-11.045-8.9543-20-20-20zm-754.77-18.109c-11.046 0-20 8.9543-20 20v80c0 11.046 8.9543 20 20 20 11.046 0 20-8.9543 20-20v-80c0-11.046-8.9543-20-20-20zm0 160c-11.046 0-20 8.9543-20 20v54.221c0.0011 11.045 8.9548 19.999 20 20h25.779c11.046 0 20-8.9543 20-20 0-11.046-8.9543-20-20-20h-5.7793v-34.221c0-11.046-8.9543-20-20-20zm105.78 54.221c-11.046 0-20 8.9543-20 20 0 11.046 8.9543 20 20 20h80c11.046 0 20-8.9543 20-20 0-11.046-8.9543-20-20-20zm160 0c-11.046 0-20 8.9543-20 20 0 11.046 8.9543 20 20 20h80c11.046 0 20-8.9543 20-20 0-11.046-8.9543-20-20-20zm160 0c-11.046 0-20 8.9543-20 20 0 11.046 8.9543 20 20 20h53.222c11.046 0 20-8.9543 20-20 0-11.046-8.9543-20-20-20zm160 0c-11.045-0.15428-20 8.9543-20 20 0 11.046 8.9554 19.846 20 20l58.091 0.81144c11.045 0.15428 20-8.9543 20-20 0-11.046-8.9554-19.846-20-20z" stroke-dasharray="80, 80" stroke-linecap="round" stroke-linejoin="round"/></svg>
