<?xml version="1.0" encoding="UTF-8"?>
<!-- Created with Inkscape (http://www.inkscape.org/) -->
<svg width="24" height="24" version="1.1" viewBox="0 0 24 24" xmlns="http://www.w3.org/2000/svg">
 <g stroke-linecap="round">
  <path d="m9.0918 9.0918a1 1 0 0 0-0.5918 0.9082v2.0371a1 1 0 0 0 1 1 1 1 0 0 0 1-1v-1.5371l-1.4082-1.4082z"/>
  <path d="m14.5 9a1 1 0 0 0-1 1v0.66992l1.8652 1.8652a1 1 0 0 0 0.13477-0.49805v-2.0371a1 1 0 0 0-1-1z"/>
  <rect transform="rotate(45)" x="3.9706" y="4.4409e-16" width="26" height="2" stroke-dashoffset=".15" stroke-width="2"/>
 </g>
 <path d="m12 2.002c-2.0111 3.763e-4 -3.6142 0.98918-4.7617 2.4062l1.418 1.418c0.85375-1.176 1.8749-1.8239 3.3457-1.8242 1.6738-3.136e-4 2.761 0.83627 3.6836 2.3359 0.92258 1.4997 1.5317 3.6441 1.8828 5.8203 0.16445 1.0192 0.2727 2.0041 0.3457 2.9258l2.1074 2.1074c-0.04576-1.5719-0.17103-3.4479-0.47852-5.3535-0.37464-2.3218-1.0017-4.6752-2.1543-6.5488s-2.9803-3.2876-5.3887-3.2871zm-5.8594 4.1387c-0.86183 1.7122-1.3721 3.7195-1.6953 5.7051-0.75638 4.6467-0.45508 9.2266-0.45508 9.2266l0.039062 0.60352 0.55078 0.24609s0.59335 0.26508 1.3398 0.5293 1.6051 0.55754 2.4746 0.55664c0.86989-9.17e-4 1.5596-0.33243 2.1523-0.58203 0.5927-0.2496 1.0833-0.42379 1.4395-0.42383 0.35672-3.5e-5 0.82978 0.17119 1.4102 0.41992 0.58037 0.24873 1.2668 0.58097 2.1367 0.58008 0.87028-9.08e-4 1.7364-0.29473 2.4941-0.56055 0.75776-0.26582 1.3613-0.53125 1.3613-0.53125l0.55664-0.24414 0.039063-0.60547s0.024573-0.39819 0.042969-1.0332l-1.9844-1.9844c0.008849 1.0964-0.025395 1.9156-0.042969 2.2637-0.22155 0.09016-0.28158 0.12415-0.63477 0.24805-0.67818 0.2379-1.5397 0.44696-1.8359 0.44726-0.29661 3.05e-4 -0.75778-0.166-1.3457-0.41797-0.58792-0.25197-1.3054-0.58212-2.1973-0.58203-0.89237 8.8e-5 -1.6143 0.32719-2.2148 0.58008-0.60054 0.25288-1.0822 0.42547-1.3789 0.42578-0.29702 3.06e-4 -1.1421-0.20619-1.8066-0.44141-0.34111-0.12074-0.39545-0.15336-0.61133-0.24219-0.040832-0.83374-0.18385-4.2911 0.44531-8.1562 0.26152-1.6066 0.6642-3.1934 1.2285-4.5195l-1.5078-1.5078z"/>
</svg>
