<?xml version="1.0" encoding="UTF-8" standalone="no"?>
<svg
   height="24px"
   viewBox="0 -960 960 960"
   width="24px"
   fill="#000000"
   version="1.1"
   id="svg1"
   sodipodi:docname="visible-haired-arrow.svg"
   inkscape:version="1.4 (e7c3feb100, 2024-10-09)"
   xmlns:inkscape="http://www.inkscape.org/namespaces/inkscape"
   xmlns:sodipodi="http://sodipodi.sourceforge.net/DTD/sodipodi-0.dtd"
   xmlns="http://www.w3.org/2000/svg"
   xmlns:svg="http://www.w3.org/2000/svg">
  <defs
     id="defs1" />
  <sodipodi:namedview
     id="namedview1"
     pagecolor="#ffffff"
     bordercolor="#666666"
     borderopacity="1.0"
     inkscape:showpageshadow="2"
     inkscape:pageopacity="0.0"
     inkscape:pagecheckerboard="0"
     inkscape:deskcolor="#d1d1d1"
     showgrid="true"
     inkscape:zoom="27.500578"
     inkscape:cx="10.690685"
     inkscape:cy="13.508807"
     inkscape:window-width="1920"
     inkscape:window-height="1003"
     inkscape:window-x="0"
     inkscape:window-y="40"
     inkscape:window-maximized="1"
     inkscape:current-layer="svg1">
    <inkscape:grid
       id="grid1"
       units="px"
       originx="0"
       originy="0"
       spacingx="40"
       spacingy="40"
       empcolor="#3f3fff"
       empopacity="0.25098039"
       color="#3f3fff"
       opacity="0.1254902"
       empspacing="5"
       enabled="true"
       visible="true" />
  </sodipodi:namedview>
  <path
     d="m 600,-160 c 39.33333,0 75.83333,-9 109.5,-27 33.66667,-18 60.5,-42.33333 80.5,-73 -20,-30.66667 -46.83333,-55 -80.5,-73 -33.66667,-18 -70.16667,-27 -109.5,-27 -39.33333,0 -75.83333,9 -109.5,27 -33.66667,18 -60.5,42.33333 -80.5,73 20,30.66667 46.83333,55 80.5,73 33.66667,18 70.16667,27 109.5,27 z m 0,80 C 536,-80 478.83333,-96.833333 428.5,-130.5 378.16667,-164.16667 342,-207.33333 320,-260 c 22,-52.66667 58.16667,-95.83333 108.5,-129.5 50.33333,-33.66667 107.5,-50.5 171.5,-50.5 64,0 121.16667,16.83333 171.5,50.5 50.33333,33.66667 86.5,76.83333 108.5,129.5 -22,52.66667 -58.16667,95.83333 -108.5,129.5 C 721.16667,-96.833333 664,-80 600,-80 Z m 0,-120 c -16.66667,0 -30.83333,-5.83333 -42.5,-17.5 -11.66667,-11.66667 -17.5,-25.83333 -17.5,-42.5 0,-16.66667 5.83333,-30.83333 17.5,-42.5 11.66667,-11.66667 25.83333,-17.5 42.5,-17.5 16.66667,0 30.83333,5.83333 42.5,17.5 11.66667,11.66667 17.5,25.83333 17.5,42.5 0,16.66667 -5.83333,30.83333 -17.5,42.5 -11.66667,11.66667 -25.83333,17.5 -42.5,17.5 z"
     id="path1"
     sodipodi:nodetypes="sscssscsssscssscsssssssssss"
     style="display:inline" />
  <path
     style="display:inline;fill:none;stroke:#000000;stroke-width:80;stroke-linecap:round;stroke-linejoin:miter;stroke-dasharray:none;stroke-opacity:1"
     d="M 120.10573,-399.7362 754.91905,-666.35799"
     id="path2"
     sodipodi:nodetypes="cc" />
  <path
     style="display:inline;fill:none;stroke:#000000;stroke-width:40;stroke-linecap:round;stroke-linejoin:miter;stroke-dasharray:none;stroke-opacity:1"
     d="M 234.07661,-436.89214 100,-780"
     id="path2-2"
     sodipodi:nodetypes="cc" />
  <path
     style="display:inline;fill:none;stroke:#000000;stroke-width:40;stroke-linecap:round;stroke-linejoin:miter;stroke-dasharray:none;stroke-opacity:1"
     d="M 337.63568,-476.70248 203.55907,-819.81034"
     id="path2-2-6"
     sodipodi:nodetypes="cc" />
  <path
     style="display:inline;fill:none;stroke:#000000;stroke-width:40;stroke-linecap:round;stroke-linejoin:miter;stroke-dasharray:none;stroke-opacity:1"
     d="M 441.19474,-516.51282 307.11813,-859.62068"
     id="path2-2-61"
     sodipodi:nodetypes="cc" />
  <path
     style="display:inline;fill:none;stroke:#000000;stroke-width:40;stroke-linecap:round;stroke-linejoin:miter;stroke-dasharray:none;stroke-opacity:1"
     d="M 544.75381,-556.32316 410.6772,-899.43102"
     id="path2-2-2"
     sodipodi:nodetypes="cc" />
  <path
     d="M 600,-644.51742 719.1953,-691.17021 636.27126,-727.44146 668.0086,-800 l 207.3101,90.67813 -90.67813,207.31009 -72.55852,-31.73733 34.40882,-82.19508 -117.33286,45.92383 z"
     id="path1-5"
     style="display:inline" />
</svg>
