<?xml version="1.0" encoding="UTF-8"?>
<svg width="24px" height="24px" fill="#000000" version="1.1" viewBox="0 -960 960 960" xmlns="http://www.w3.org/2000/svg">
 <path d="m450-81c-52-4-100.5-17-145.5-39s-84.167-50.833-117.5-86.5-59.5-77-78.5-124-28.5-96.833-28.5-149.5c0-55.333 10.5-107.33 31.5-156s49.5-91 85.5-127 78.333-64.5 127-85.5 100.67-31.5 156-31.5 107.33 10.5 156 31.5 91 49.5 127 85.5 64.5 78.333 85.5 127 31.5 100.67 31.5 156v19c-11.333-7.3333-24.5-14.5-39.5-21.5s-28.833-12.833-41.5-17.5c-5.3333-84-38.5-155-99.5-213s-134.17-87-219.5-87c-37.333 0-72.5 6-105.5 18s-76.833 39.333-90.5 50c-13.667 10.667-45.333 42.333-56 56-10.667 13.667-38 57.5-50 90.5s-18 68.167-18 105.5c0 66 17.833 125.17 53.5 177.5s81.833 90.833 138.5 115.5c12 18.667 27 37.667 45 57s35.667 35.667 53 49zm230-79c39.333 0 75.833-9 109.5-27s60.5-42.333 80.5-73c-20-30.667-46.833-55-80.5-73s-70.167-27-109.5-27-75.833 9-109.5 27-60.5 42.333-80.5 73c20 30.667 46.833 55 80.5 73s70.167 27 109.5 27zm0 80c-64 0-121.17-16.833-171.5-50.5-50.333-33.667-86.5-76.833-108.5-129.5 22-52.667 58.167-95.833 108.5-129.5s107.5-50.5 171.5-50.5 121.17 16.833 171.5 50.5 86.5 76.833 108.5 129.5c-22 52.667-58.167 95.833-108.5 129.5-50.333 33.667-107.5 50.5-171.5 50.5zm0-120c-16.667 0-30.833-5.8333-42.5-17.5s-17.5-25.833-17.5-42.5 5.8333-30.833 17.5-42.5 25.833-17.5 42.5-17.5 30.833 5.8333 42.5 17.5 17.5 25.833 17.5 42.5-5.8333 30.833-17.5 42.5-25.833 17.5-42.5 17.5z"/>
</svg>
